<svg width="14" height="14" viewBox="0 0 14 14" fill="none" xmlns="http://www.w3.org/2000/svg">
<g clip-path="url(#clip0_18_172)">
<path d="M12.2965 4.27288C12.3967 4.04098 12.4525 3.78535 12.4525 3.51664C12.4525 2.46276 11.5982 1.60844 10.5443 1.60844C10.1629 1.60844 9.80791 1.72079 9.50979 1.91358C8.76408 0.762067 7.4682 0 5.99422 0C3.68266 0 1.80875 1.87389 1.80875 4.18545C1.80875 4.19882 1.80913 4.21208 1.80924 4.22542C0.746008 4.6754 0 5.72836 0 6.95556C0 8.5921 1.32668 9.91878 2.96322 9.91878H11.0368C12.6733 9.91878 14 8.5921 14 6.95556C14 5.76948 13.3031 4.74636 12.2965 4.27288Z" fill="#D8ECFE"/>
<path d="M2.96351 3.99219C2.26845 3.99219 1.6294 4.23129 1.12402 4.63207C1.48061 4.47999 1.87344 4.39572 2.28575 4.39572C3.29946 4.39572 4.19444 4.90471 4.72856 5.68116C4.83196 5.83151 5.02371 5.89149 5.19377 5.82534C5.19624 5.82438 5.19868 5.82342 5.20115 5.82248C5.43726 5.73115 5.5228 5.44014 5.3756 5.23418C4.8382 4.4823 3.95798 3.99219 2.96351 3.99219Z" fill="url(#paint0_linear_18_172)"/>
<path d="M12.2968 4.27285C12.397 4.04094 12.4528 3.78532 12.4528 3.5166C12.4528 2.46273 11.5985 1.6084 10.5446 1.6084C10.3535 1.6084 10.1691 1.63662 9.99514 1.68899C10.7813 1.92488 11.3542 2.65368 11.3542 3.51663C11.3542 3.78534 11.2984 4.04094 11.1982 4.27287C12.2048 4.74638 12.9017 5.7695 12.9017 6.95557C12.9017 8.59212 11.575 9.9188 9.93848 9.9188H11.0371C12.6736 9.9188 14.0003 8.59212 14.0003 6.95557C14.0003 5.76945 13.3034 4.74632 12.2968 4.27285Z" fill="url(#paint1_linear_18_172)"/>
<path d="M5.99461 0C5.80849 0 5.62512 0.0120784 5.44531 0.0356863C6.77529 0.210082 7.90852 1.00858 8.5414 2.12756C8.66918 2.35351 8.9782 2.39628 9.1563 2.20744C9.26166 2.09575 9.38038 1.99676 9.50995 1.91306C8.76441 0.761765 7.46845 0 5.99461 0V0Z" fill="url(#paint2_linear_18_172)"/>
<path d="M0.68202 12.0667C1.05869 12.0667 1.36404 11.7613 1.36404 11.3847C1.36404 11.008 1.05869 10.7026 0.68202 10.7026C0.305351 10.7026 0 11.008 0 11.3847C0 11.7613 0.305351 12.0667 0.68202 12.0667Z" fill="#579EDC"/>
<path d="M3.50038 12.0667C3.87705 12.0667 4.1824 11.7613 4.1824 11.3847C4.1824 11.008 3.87705 10.7026 3.50038 10.7026C3.12371 10.7026 2.81836 11.008 2.81836 11.3847C2.81836 11.7613 3.12371 12.0667 3.50038 12.0667Z" fill="#579EDC"/>
<path d="M6.31776 12.0667C6.69443 12.0667 6.99978 11.7613 6.99978 11.3847C6.99978 11.008 6.69443 10.7026 6.31776 10.7026C5.94109 10.7026 5.63574 11.008 5.63574 11.3847C5.63574 11.7613 5.94109 12.0667 6.31776 12.0667Z" fill="#579EDC"/>
<path d="M9.13612 12.0667C9.51279 12.0667 9.81814 11.7613 9.81814 11.3847C9.81814 11.008 9.51279 10.7026 9.13612 10.7026C8.75945 10.7026 8.4541 11.008 8.4541 11.3847C8.4541 11.7613 8.75945 12.0667 9.13612 12.0667Z" fill="#579EDC"/>
<path d="M11.9535 12.0667C12.3302 12.0667 12.6355 11.7613 12.6355 11.3847C12.6355 11.008 12.3302 10.7026 11.9535 10.7026C11.5768 10.7026 11.2715 11.008 11.2715 11.3847C11.2715 11.7613 11.5768 12.0667 11.9535 12.0667Z" fill="#579EDC"/>
<path d="M2.04628 13.9998C2.42295 13.9998 2.7283 13.6944 2.7283 13.3178C2.7283 12.9411 2.42295 12.6357 2.04628 12.6357C1.66961 12.6357 1.36426 12.9411 1.36426 13.3178C1.36426 13.6944 1.66961 13.9998 2.04628 13.9998Z" fill="#579EDC"/>
<path d="M4.86464 13.9998C5.24131 13.9998 5.54666 13.6944 5.54666 13.3178C5.54666 12.9411 5.24131 12.6357 4.86464 12.6357C4.48797 12.6357 4.18262 12.9411 4.18262 13.3178C4.18262 13.6944 4.48797 13.9998 4.86464 13.9998Z" fill="#579EDC"/>
<path d="M7.68202 13.9998C8.05869 13.9998 8.36404 13.6944 8.36404 13.3178C8.36404 12.9411 8.05869 12.6357 7.68202 12.6357C7.30535 12.6357 7 12.9411 7 13.3178C7 13.6944 7.30535 13.9998 7.68202 13.9998Z" fill="#579EDC"/>
<path d="M10.5004 13.9998C10.877 13.9998 11.1824 13.6944 11.1824 13.3178C11.1824 12.9411 10.877 12.6357 10.5004 12.6357C10.1237 12.6357 9.81836 12.9411 9.81836 13.3178C9.81836 13.6944 10.1237 13.9998 10.5004 13.9998Z" fill="#579EDC"/>
<path d="M13.3178 13.9998C13.6944 13.9998 13.9998 13.6944 13.9998 13.3178C13.9998 12.9411 13.6944 12.6357 13.3178 12.6357C12.9411 12.6357 12.6357 12.9411 12.6357 13.3178C12.6357 13.6944 12.9411 13.9998 13.3178 13.9998Z" fill="#579EDC"/>
</g>
<defs>
<linearGradient id="paint0_linear_18_172" x1="-0.219428" y1="4.92212" x2="13.9539" y2="4.92212" gradientUnits="userSpaceOnUse">
<stop stop-color="#D8ECFE"/>
<stop offset="0.5667" stop-color="#B3DAFE"/>
<stop offset="0.9955" stop-color="#8AC9FE"/>
</linearGradient>
<linearGradient id="paint1_linear_18_172" x1="-0.21932" y1="5.76357" x2="13.954" y2="5.76357" gradientUnits="userSpaceOnUse">
<stop stop-color="#D8ECFE"/>
<stop offset="0.5667" stop-color="#B3DAFE"/>
<stop offset="0.9955" stop-color="#8AC9FE"/>
</linearGradient>
<linearGradient id="paint2_linear_18_172" x1="-0.219198" y1="1.16321" x2="13.9541" y2="1.16321" gradientUnits="userSpaceOnUse">
<stop stop-color="#D8ECFE"/>
<stop offset="0.5667" stop-color="#B3DAFE"/>
<stop offset="0.9955" stop-color="#8AC9FE"/>
</linearGradient>
<clipPath id="clip0_18_172">
<rect width="14" height="14" fill="white"/>
</clipPath>
</defs>
</svg>
