<svg width="19" height="16" viewBox="0 0 19 16" fill="none" xmlns="http://www.w3.org/2000/svg">
<path d="M10.9407 3.05523C11.779 3.58082 12.3668 4.47024 12.4738 5.50265C12.8157 5.66239 13.1951 5.75425 13.5974 5.75425C15.066 5.75425 16.2564 4.56391 16.2564 3.0955C16.2564 1.62686 15.066 0.436523 13.5974 0.436523C12.1428 0.436976 10.9628 1.60605 10.9407 3.05523ZM9.19872 8.49943C10.6674 8.49943 11.8577 7.30886 11.8577 5.84045C11.8577 4.37204 10.6671 3.1817 9.19872 3.1817C7.73031 3.1817 6.53929 4.37227 6.53929 5.84068C6.53929 7.30909 7.73031 8.49943 9.19872 8.49943ZM10.3266 8.68066H8.07037C6.19311 8.68066 4.66588 10.2081 4.66588 12.0854V14.8446L4.67289 14.8878L4.86295 14.9473C6.65445 15.5071 8.21088 15.6937 9.49195 15.6937C11.9941 15.6937 13.4444 14.9803 13.5338 14.9349L13.7114 14.845H13.7304V12.0854C13.7311 10.2081 12.2039 8.68066 10.3266 8.68066ZM14.7257 5.93571H12.4869C12.4627 6.83146 12.0803 7.63807 11.4755 8.21819C13.1442 8.71437 14.3651 10.2617 14.3651 12.0895V12.9397C16.5756 12.8587 17.8494 12.2322 17.9334 12.1901L18.111 12.1001H18.13V9.33998C18.13 7.46294 16.6028 5.93571 14.7257 5.93571ZM4.53307 5.7547C5.05323 5.7547 5.5372 5.60288 5.94717 5.34427C6.0775 4.49422 6.53318 3.75142 7.18412 3.24551C7.18684 3.19573 7.19159 3.14641 7.19159 3.09618C7.19159 1.62754 6.00102 0.437202 4.53307 0.437202C3.0642 0.437202 1.87409 1.62754 1.87409 3.09618C1.87409 4.56414 3.0642 5.7547 4.53307 5.7547ZM6.92099 8.21819C6.31914 7.64101 5.93812 6.8387 5.91029 5.94838C5.82726 5.94227 5.74513 5.93571 5.66051 5.93571H3.40449C1.52724 5.93571 0 7.46294 0 9.33998V12.0996L0.00701398 12.1422L0.19707 12.2021C1.63426 12.6508 2.91691 12.8576 4.031 12.9228V12.0895C4.03145 10.2617 5.25188 8.71483 6.92099 8.21819Z" fill="#00A77F"/>
</svg>
