<svg width="18" height="18" viewBox="0 0 18 18" fill="none" xmlns="http://www.w3.org/2000/svg">
<g clip-path="url(#clip0_18_157)">
<path d="M17.5743 6.61811L11.7444 6.0774L9.42856 0.699884C9.26643 0.323346 8.73254 0.323346 8.57041 0.699884L6.25462 6.07743L0.424674 6.61811C0.0164621 6.65597 -0.148517 7.1637 0.15947 7.43425L4.55818 11.2985L3.2709 17.0102C3.18077 17.4101 3.61267 17.7239 3.96517 17.5146L8.9995 14.5253L14.0338 17.5146C14.3863 17.7239 14.8183 17.4101 14.7281 17.0102L13.4408 11.2985L17.8395 7.43425C18.1475 7.1637 17.9825 6.65597 17.5743 6.61811Z" fill="#FFDC64"/>
<path d="M9.42856 0.699884C9.26643 0.323346 8.73254 0.323346 8.57041 0.699884L6.25462 6.07743L0.424674 6.61811C0.0164621 6.65597 -0.148517 7.1637 0.15947 7.43425L4.55818 11.2985L3.2709 17.0102C3.18077 17.4101 3.61267 17.7239 3.96517 17.5146L5.0888 16.8474C5.24432 10.4458 8.21873 5.9377 10.5736 3.35881L9.42856 0.699884Z" fill="#FFC850"/>
</g>
<defs>
<clipPath id="clip0_18_157">
<rect width="17.999" height="17.999" fill="white"/>
</clipPath>
</defs>
</svg>
